<?xml version="1.0" standalone="no"?>
<!DOCTYPE svg PUBLIC "-//W3C//DTD SVG 20010904//EN"
 "http://www.w3.org/TR/2001/REC-SVG-20010904/DTD/svg10.dtd">
<svg version="1.0" xmlns="http://www.w3.org/2000/svg"
 width="2100.000000pt" height="2100.000000pt" viewBox="0 0 2100.000000 2100.000000"
 preserveAspectRatio="xMidYMid meet">
<metadata>
Created by potrace 1.14, written by Peter Selinger 2001-2017
</metadata>
<g transform="translate(0.000000,2100.000000) scale(0.100000,-0.100000)"
fill="#000000" stroke="none">
<path d="M6595 14852 c-99 -18 -235 -92 -311 -167 -69 -68 -92 -121 -95 -220
-4 -89 -16 -120 -58 -143 -50 -28 -102 -40 -196 -47 -142 -10 -196 -16 -221
-25 -38 -15 -95 -112 -101 -176 -5 -47 -2 -59 21 -94 14 -22 54 -60 87 -84 57
-42 127 -66 259 -90 14 -3 39 -8 55 -11 43 -8 77 -36 98 -78 16 -32 18 -61 17
-229 -1 -106 -3 -222 -5 -258 -1 -36 -6 -141 -10 -235 -11 -249 -22 -460 -30
-555 -2 -25 -7 -92 -10 -150 -3 -58 -8 -125 -10 -150 -2 -25 -7 -83 -10 -130
-6 -84 -10 -140 -20 -255 -3 -33 -7 -91 -10 -130 -3 -38 -7 -92 -10 -120 -3
-27 -7 -84 -10 -125 -5 -76 -12 -164 -20 -255 -2 -27 -7 -95 -11 -150 -7 -121
-9 -153 -18 -275 -9 -121 -13 -184 -21 -350 -4 -74 -8 -155 -10 -180 -23 -278
-22 -972 0 -1225 7 -81 15 -153 20 -189 3 -20 7 -53 10 -73 3 -21 7 -51 10
-68 3 -16 7 -47 10 -69 3 -21 7 -41 9 -45 2 -3 7 -24 10 -46 12 -74 45 -201
81 -313 l36 -111 149 -81 c147 -80 151 -81 187 -70 58 19 125 65 182 125 28
29 51 57 52 62 0 4 2 18 5 31 5 31 -16 69 -77 139 -46 53 -79 102 -85 128 -11
43 -20 99 -29 170 -27 227 -27 1527 0 1904 8 101 16 195 20 221 2 14 7 50 10
80 9 74 17 85 67 97 24 6 91 25 149 41 168 49 387 103 554 138 11 2 31 6 45 9
14 3 36 8 50 11 43 9 243 44 285 49 144 20 186 25 235 30 30 3 71 8 90 10 66
8 225 17 362 20 138 4 198 9 298 25 30 5 86 12 124 16 78 7 113 25 122 61 7
26 -1 116 -22 241 -7 42 -101 138 -169 172 -50 25 -52 25 -303 24 -139 -1
-308 -4 -375 -8 -103 -5 -339 -33 -427 -51 -13 -2 -42 -7 -65 -11 -22 -3 -71
-12 -110 -21 -38 -8 -83 -17 -100 -20 -16 -2 -145 -31 -285 -64 -364 -85 -390
-88 -438 -52 -58 43 -67 74 -68 233 -1 80 2 175 7 210 4 36 10 94 13 130 8 79
16 156 21 190 2 14 7 52 10 85 3 33 7 74 10 90 2 17 6 59 10 95 3 36 8 76 10
90 4 29 13 102 20 175 3 28 7 68 10 90 19 167 31 281 40 372 3 34 7 70 9 80 2
10 7 50 11 88 4 39 8 81 11 94 2 14 6 54 9 90 4 36 8 73 10 81 2 8 7 48 10 87
11 122 5 112 71 119 131 15 474 89 904 194 162 40 306 74 320 77 14 2 53 10
86 18 74 17 80 18 259 49 77 14 163 27 190 31 28 3 66 8 85 10 52 7 238 18
295 18 63 1 237 -13 247 -19 4 -3 53 -5 110 -5 77 -1 113 3 143 16 54 23 125
73 125 88 0 15 -81 101 -140 148 -159 128 -302 192 -514 230 -82 14 -140 17
-306 14 -113 -2 -216 -6 -230 -9 -14 -2 -61 -7 -105 -11 -44 -4 -82 -8 -85
-10 -3 -2 -32 -6 -65 -9 -33 -4 -69 -9 -80 -11 -11 -2 -36 -7 -55 -10 -19 -2
-44 -6 -55 -9 -11 -2 -40 -7 -65 -11 -25 -4 -54 -9 -65 -11 -11 -2 -31 -6 -45
-9 -14 -2 -92 -18 -175 -35 -82 -17 -161 -33 -175 -36 -14 -3 -33 -7 -42 -10
-10 -3 -30 -7 -45 -10 -16 -3 -100 -20 -188 -39 -181 -38 -271 -56 -282 -57
-5 0 -19 -4 -32 -9 -18 -7 -29 -5 -43 8 -42 37 -50 71 -52 207 -2 79 -8 141
-15 157 -24 49 -76 66 -156 51z"/>
<path d="M13505 11933 c-66 -7 -212 -28 -325 -48 -261 -44 -238 -40 -425 -80
-88 -20 -169 -37 -180 -39 -37 -8 -158 -37 -360 -86 -311 -76 -396 -96 -595
-140 -102 -23 -189 -43 -195 -44 -22 -5 -122 -26 -145 -30 -14 -3 -59 -11
-100 -20 -41 -8 -91 -18 -110 -21 -93 -14 -230 -34 -272 -40 -90 -11 -173 -43
-220 -85 -85 -74 -96 -144 -58 -365 27 -157 28 -268 5 -545 -4 -40 -7 -97 -20
-295 -2 -33 -7 -105 -10 -160 -3 -55 -8 -131 -10 -170 -2 -38 -7 -131 -10
-205 -3 -74 -8 -178 -10 -230 -3 -52 -7 -176 -10 -275 -3 -99 -8 -234 -10
-300 -23 -674 -24 -1943 -1 -2150 2 -16 6 -66 10 -110 4 -44 9 -87 11 -95 2
-8 6 -39 9 -68 3 -29 8 -63 11 -75 2 -12 7 -38 10 -57 2 -19 7 -46 10 -60 3
-14 8 -41 11 -60 10 -60 54 -231 86 -330 139 -428 349 -710 650 -874 86 -46
236 -100 310 -111 23 -4 45 -8 48 -10 8 -5 189 -19 245 -18 293 2 686 87 1250
273 246 81 419 133 566 171 114 29 132 33 182 44 12 2 54 11 92 19 204 44 428
59 545 38 151 -26 182 -20 225 49 31 49 29 57 -33 135 -77 97 -203 176 -354
222 -59 19 -90 25 -178 38 -62 9 -153 15 -242 15 -136 0 -217 -10 -398 -47
-103 -22 -94 -20 -205 -50 -161 -43 -173 -47 -545 -173 -314 -107 -590 -185
-730 -206 -25 -4 -53 -9 -64 -11 -176 -33 -385 -18 -496 35 -227 109 -377 354
-454 744 -29 146 -39 224 -53 407 -14 200 -6 1010 12 1205 11 108 17 151 24
158 15 15 202 86 335 128 72 22 142 44 156 49 201 72 1028 268 1255 298 182
25 356 7 474 -48 l63 -30 102 41 c56 22 115 51 131 64 l30 23 -23 93 c-13 52
-32 125 -44 162 -20 68 -21 69 -77 93 -173 78 -302 104 -486 99 -71 -2 -140
-6 -152 -9 -11 -2 -43 -8 -70 -11 -26 -4 -75 -13 -108 -21 -33 -7 -71 -15 -85
-18 -50 -9 -298 -79 -469 -132 -405 -126 -648 -180 -856 -189 -59 -3 -78 0
-111 19 -30 16 -39 27 -38 46 3 49 16 246 19 280 2 19 6 85 10 145 3 61 8 126
10 145 2 19 7 80 10 135 3 55 7 118 10 140 2 22 7 78 10 125 3 47 8 110 10
140 3 30 7 84 9 120 5 65 13 176 21 260 2 25 7 83 11 130 3 47 8 96 9 110 1
14 5 63 9 110 4 47 9 101 11 120 2 19 7 69 10 110 3 41 8 86 10 100 2 14 7 63
11 110 4 47 8 93 8 102 10 89 557 280 1101 383 11 2 31 6 45 9 14 2 63 11 110
20 47 9 103 18 125 22 22 3 56 9 75 14 19 4 57 11 83 15 27 3 56 8 65 10 10 1
37 6 62 9 25 3 54 8 66 10 12 2 45 7 75 11 30 3 65 8 79 10 14 2 45 6 70 10
25 3 61 8 80 10 57 8 206 24 275 30 28 2 118 7 200 10 296 10 365 16 439 35
91 23 127 41 166 82 27 28 32 43 33 98 2 65 -54 142 -149 206 -83 55 -152 79
-249 89 -27 3 -72 8 -100 12 -82 11 -232 9 -360 -4z"/>
</g>
</svg>
